# Tiled2Unity generated file. Do not modify by hand.
# Wavefront file for 'mapa8_mesh_0001.obj'

# Vertices (Count = 736)
v -6138 -1419 0
v -6270 -1419 0
v -6270 -1290 0
v -6138 -1290 0
v -6204 -1452 0
v -6336 -1452 0
v -6336 -1323 0
v -6204 -1323 0
v -6072 -1452 0
v -6204 -1452 0
v -6204 -1323 0
v -6072 -1323 0
v -6270 -1485 0
v -6402 -1485 0
v -6402 -1356 0
v -6270 -1356 0
v -6138 -1485 0
v -6270 -1485 0
v -6270 -1356 0
v -6138 -1356 0
v -6006 -1485 0
v -6138 -1485 0
v -6138 -1356 0
v -6006 -1356 0
v -6336 -1518 0
v -6468 -1518 0
v -6468 -1389 0
v -6336 -1389 0
v -6204 -1518 0
v -6336 -1518 0
v -6336 -1389 0
v -6204 -1389 0
v -6072 -1518 0
v -6204 -1518 0
v -6204 -1389 0
v -6072 -1389 0
v -5940 -1518 0
v -6072 -1518 0
v -6072 -1389 0
v -5940 -1389 0
v -6402 -1551 0
v -6534 -1551 0
v -6534 -1422 0
v -6402 -1422 0
v -6270 -1551 0
v -6402 -1551 0
v -6402 -1422 0
v -6270 -1422 0
v -6138 -1551 0
v -6270 -1551 0
v -6270 -1422 0
v -6138 -1422 0
v -6006 -1551 0
v -6138 -1551 0
v -6138 -1422 0
v -6006 -1422 0
v -5874 -1551 0
v -6006 -1551 0
v -6006 -1422 0
v -5874 -1422 0
v -6468 -1584 0
v -6600 -1584 0
v -6600 -1455 0
v -6468 -1455 0
v -6336 -1584 0
v -6468 -1584 0
v -6468 -1455 0
v -6336 -1455 0
v -6204 -1584 0
v -6336 -1584 0
v -6336 -1455 0
v -6204 -1455 0
v -6072 -1584 0
v -6204 -1584 0
v -6204 -1455 0
v -6072 -1455 0
v -5940 -1584 0
v -6072 -1584 0
v -6072 -1455 0
v -5940 -1455 0
v -5808 -1584 0
v -5940 -1584 0
v -5940 -1455 0
v -5808 -1455 0
v -5676 -1584 0
v -5808 -1584 0
v -5808 -1455 0
v -5676 -1455 0
v -6534 -1617 0
v -6666 -1617 0
v -6666 -1488 0
v -6534 -1488 0
v -6402 -1617 0
v -6534 -1617 0
v -6534 -1488 0
v -6402 -1488 0
v -6270 -1617 0
v -6402 -1617 0
v -6402 -1488 0
v -6270 -1488 0
v -6138 -1617 0
v -6270 -1617 0
v -6270 -1488 0
v -6138 -1488 0
v -6006 -1617 0
v -6138 -1617 0
v -6138 -1488 0
v -6006 -1488 0
v -5874 -1617 0
v -6006 -1617 0
v -6006 -1488 0
v -5874 -1488 0
v -5742 -1617 0
v -5874 -1617 0
v -5874 -1488 0
v -5742 -1488 0
v -5610 -1617 0
v -5742 -1617 0
v -5742 -1488 0
v -5610 -1488 0
v -6600 -1650 0
v -6732 -1650 0
v -6732 -1521 0
v -6600 -1521 0
v -6468 -1650 0
v -6600 -1650 0
v -6600 -1521 0
v -6468 -1521 0
v -6336 -1650 0
v -6468 -1650 0
v -6468 -1521 0
v -6336 -1521 0
v -6204 -1650 0
v -6336 -1650 0
v -6336 -1521 0
v -6204 -1521 0
v -6072 -1650 0
v -6204 -1650 0
v -6204 -1521 0
v -6072 -1521 0
v -5940 -1650 0
v -6072 -1650 0
v -6072 -1521 0
v -5940 -1521 0
v -5808 -1650 0
v -5940 -1650 0
v -5940 -1521 0
v -5808 -1521 0
v -5676 -1650 0
v -5808 -1650 0
v -5808 -1521 0
v -5676 -1521 0
v -6666 -1683 0
v -6798 -1683 0
v -6798 -1554 0
v -6666 -1554 0
v -6534 -1683 0
v -6666 -1683 0
v -6666 -1554 0
v -6534 -1554 0
v -6402 -1683 0
v -6534 -1683 0
v -6534 -1554 0
v -6402 -1554 0
v -6270 -1683 0
v -6402 -1683 0
v -6402 -1554 0
v -6270 -1554 0
v -6138 -1683 0
v -6270 -1683 0
v -6270 -1554 0
v -6138 -1554 0
v -6006 -1683 0
v -6138 -1683 0
v -6138 -1554 0
v -6006 -1554 0
v -5874 -1683 0
v -6006 -1683 0
v -6006 -1554 0
v -5874 -1554 0
v -5742 -1683 0
v -5874 -1683 0
v -5874 -1554 0
v -5742 -1554 0
v -5610 -1683 0
v -5742 -1683 0
v -5742 -1554 0
v -5610 -1554 0
v -6732 -1716 0
v -6864 -1716 0
v -6864 -1587 0
v -6732 -1587 0
v -6600 -1716 0
v -6732 -1716 0
v -6732 -1587 0
v -6600 -1587 0
v -6468 -1716 0
v -6600 -1716 0
v -6600 -1587 0
v -6468 -1587 0
v -6336 -1716 0
v -6468 -1716 0
v -6468 -1587 0
v -6336 -1587 0
v -6204 -1716 0
v -6336 -1716 0
v -6336 -1587 0
v -6204 -1587 0
v -6072 -1716 0
v -6204 -1716 0
v -6204 -1587 0
v -6072 -1587 0
v -5940 -1716 0
v -6072 -1716 0
v -6072 -1587 0
v -5940 -1587 0
v -5808 -1716 0
v -5940 -1716 0
v -5940 -1587 0
v -5808 -1587 0
v -5676 -1716 0
v -5808 -1716 0
v -5808 -1587 0
v -5676 -1587 0
v -5544 -1716 0
v -5676 -1716 0
v -5676 -1587 0
v -5544 -1587 0
v -6798 -1749 0
v -6930 -1749 0
v -6930 -1620 0
v -6798 -1620 0
v -6666 -1749 0
v -6798 -1749 0
v -6798 -1620 0
v -6666 -1620 0
v -6534 -1749 0
v -6666 -1749 0
v -6666 -1620 0
v -6534 -1620 0
v -6402 -1749 0
v -6534 -1749 0
v -6534 -1620 0
v -6402 -1620 0
v -6270 -1749 0
v -6402 -1749 0
v -6402 -1620 0
v -6270 -1620 0
v -6138 -1749 0
v -6270 -1749 0
v -6270 -1620 0
v -6138 -1620 0
v -6006 -1749 0
v -6138 -1749 0
v -6138 -1620 0
v -6006 -1620 0
v -5874 -1749 0
v -6006 -1749 0
v -6006 -1620 0
v -5874 -1620 0
v -5742 -1749 0
v -5874 -1749 0
v -5874 -1620 0
v -5742 -1620 0
v -5610 -1749 0
v -5742 -1749 0
v -5742 -1620 0
v -5610 -1620 0
v -5478 -1749 0
v -5610 -1749 0
v -5610 -1620 0
v -5478 -1620 0
v -6864 -1782 0
v -6996 -1782 0
v -6996 -1653 0
v -6864 -1653 0
v -6732 -1782 0
v -6864 -1782 0
v -6864 -1653 0
v -6732 -1653 0
v -6600 -1782 0
v -6732 -1782 0
v -6732 -1653 0
v -6600 -1653 0
v -6468 -1782 0
v -6600 -1782 0
v -6600 -1653 0
v -6468 -1653 0
v -6336 -1782 0
v -6468 -1782 0
v -6468 -1653 0
v -6336 -1653 0
v -6204 -1782 0
v -6336 -1782 0
v -6336 -1653 0
v -6204 -1653 0
v -6072 -1782 0
v -6204 -1782 0
v -6204 -1653 0
v -6072 -1653 0
v -5940 -1782 0
v -6072 -1782 0
v -6072 -1653 0
v -5940 -1653 0
v -5808 -1782 0
v -5940 -1782 0
v -5940 -1653 0
v -5808 -1653 0
v -5676 -1782 0
v -5808 -1782 0
v -5808 -1653 0
v -5676 -1653 0
v -5544 -1782 0
v -5676 -1782 0
v -5676 -1653 0
v -5544 -1653 0
v -5412 -1782 0
v -5544 -1782 0
v -5544 -1653 0
v -5412 -1653 0
v -6930 -1815 0
v -7062 -1815 0
v -7062 -1686 0
v -6930 -1686 0
v -6798 -1815 0
v -6930 -1815 0
v -6930 -1686 0
v -6798 -1686 0
v -6666 -1815 0
v -6798 -1815 0
v -6798 -1686 0
v -6666 -1686 0
v -6534 -1815 0
v -6666 -1815 0
v -6666 -1686 0
v -6534 -1686 0
v -6402 -1815 0
v -6534 -1815 0
v -6534 -1686 0
v -6402 -1686 0
v -6270 -1815 0
v -6402 -1815 0
v -6402 -1686 0
v -6270 -1686 0
v -6138 -1815 0
v -6270 -1815 0
v -6270 -1686 0
v -6138 -1686 0
v -6006 -1815 0
v -6138 -1815 0
v -6138 -1686 0
v -6006 -1686 0
v -5874 -1815 0
v -6006 -1815 0
v -6006 -1686 0
v -5874 -1686 0
v -5742 -1815 0
v -5874 -1815 0
v -5874 -1686 0
v -5742 -1686 0
v -5610 -1815 0
v -5742 -1815 0
v -5742 -1686 0
v -5610 -1686 0
v -5478 -1815 0
v -5610 -1815 0
v -5610 -1686 0
v -5478 -1686 0
v -5346 -1815 0
v -5478 -1815 0
v -5478 -1686 0
v -5346 -1686 0
v -6996 -1848 0
v -7128 -1848 0
v -7128 -1719 0
v -6996 -1719 0
v -6864 -1848 0
v -6996 -1848 0
v -6996 -1719 0
v -6864 -1719 0
v -6732 -1848 0
v -6864 -1848 0
v -6864 -1719 0
v -6732 -1719 0
v -6600 -1848 0
v -6732 -1848 0
v -6732 -1719 0
v -6600 -1719 0
v -6468 -1848 0
v -6600 -1848 0
v -6600 -1719 0
v -6468 -1719 0
v -6336 -1848 0
v -6468 -1848 0
v -6468 -1719 0
v -6336 -1719 0
v -6204 -1848 0
v -6336 -1848 0
v -6336 -1719 0
v -6204 -1719 0
v -6072 -1848 0
v -6204 -1848 0
v -6204 -1719 0
v -6072 -1719 0
v -5940 -1848 0
v -6072 -1848 0
v -6072 -1719 0
v -5940 -1719 0
v -5808 -1848 0
v -5940 -1848 0
v -5940 -1719 0
v -5808 -1719 0
v -5676 -1848 0
v -5808 -1848 0
v -5808 -1719 0
v -5676 -1719 0
v -5544 -1848 0
v -5676 -1848 0
v -5676 -1719 0
v -5544 -1719 0
v -5412 -1848 0
v -5544 -1848 0
v -5544 -1719 0
v -5412 -1719 0
v -6930 -1881 0
v -7062 -1881 0
v -7062 -1752 0
v -6930 -1752 0
v -6798 -1881 0
v -6930 -1881 0
v -6930 -1752 0
v -6798 -1752 0
v -6666 -1881 0
v -6798 -1881 0
v -6798 -1752 0
v -6666 -1752 0
v -6534 -1881 0
v -6666 -1881 0
v -6666 -1752 0
v -6534 -1752 0
v -6402 -1881 0
v -6534 -1881 0
v -6534 -1752 0
v -6402 -1752 0
v -6270 -1881 0
v -6402 -1881 0
v -6402 -1752 0
v -6270 -1752 0
v -6138 -1881 0
v -6270 -1881 0
v -6270 -1752 0
v -6138 -1752 0
v -6006 -1881 0
v -6138 -1881 0
v -6138 -1752 0
v -6006 -1752 0
v -5874 -1881 0
v -6006 -1881 0
v -6006 -1752 0
v -5874 -1752 0
v -5742 -1881 0
v -5874 -1881 0
v -5874 -1752 0
v -5742 -1752 0
v -5610 -1881 0
v -5742 -1881 0
v -5742 -1752 0
v -5610 -1752 0
v -5478 -1881 0
v -5610 -1881 0
v -5610 -1752 0
v -5478 -1752 0
v -6864 -1914 0
v -6996 -1914 0
v -6996 -1785 0
v -6864 -1785 0
v -6732 -1914 0
v -6864 -1914 0
v -6864 -1785 0
v -6732 -1785 0
v -6600 -1914 0
v -6732 -1914 0
v -6732 -1785 0
v -6600 -1785 0
v -6468 -1914 0
v -6600 -1914 0
v -6600 -1785 0
v -6468 -1785 0
v -6336 -1914 0
v -6468 -1914 0
v -6468 -1785 0
v -6336 -1785 0
v -6204 -1914 0
v -6336 -1914 0
v -6336 -1785 0
v -6204 -1785 0
v -6072 -1914 0
v -6204 -1914 0
v -6204 -1785 0
v -6072 -1785 0
v -5940 -1914 0
v -6072 -1914 0
v -6072 -1785 0
v -5940 -1785 0
v -5808 -1914 0
v -5940 -1914 0
v -5940 -1785 0
v -5808 -1785 0
v -5676 -1914 0
v -5808 -1914 0
v -5808 -1785 0
v -5676 -1785 0
v -5544 -1914 0
v -5676 -1914 0
v -5676 -1785 0
v -5544 -1785 0
v -6798 -1947 0
v -6930 -1947 0
v -6930 -1818 0
v -6798 -1818 0
v -6666 -1947 0
v -6798 -1947 0
v -6798 -1818 0
v -6666 -1818 0
v -6534 -1947 0
v -6666 -1947 0
v -6666 -1818 0
v -6534 -1818 0
v -6402 -1947 0
v -6534 -1947 0
v -6534 -1818 0
v -6402 -1818 0
v -6270 -1947 0
v -6402 -1947 0
v -6402 -1818 0
v -6270 -1818 0
v -6138 -1947 0
v -6270 -1947 0
v -6270 -1818 0
v -6138 -1818 0
v -6006 -1947 0
v -6138 -1947 0
v -6138 -1818 0
v -6006 -1818 0
v -5874 -1947 0
v -6006 -1947 0
v -6006 -1818 0
v -5874 -1818 0
v -5742 -1947 0
v -5874 -1947 0
v -5874 -1818 0
v -5742 -1818 0
v -5610 -1947 0
v -5742 -1947 0
v -5742 -1818 0
v -5610 -1818 0
v -6732 -1980 0
v -6864 -1980 0
v -6864 -1851 0
v -6732 -1851 0
v -6600 -1980 0
v -6732 -1980 0
v -6732 -1851 0
v -6600 -1851 0
v -6468 -1980 0
v -6600 -1980 0
v -6600 -1851 0
v -6468 -1851 0
v -6336 -1980 0
v -6468 -1980 0
v -6468 -1851 0
v -6336 -1851 0
v -6204 -1980 0
v -6336 -1980 0
v -6336 -1851 0
v -6204 -1851 0
v -6072 -1980 0
v -6204 -1980 0
v -6204 -1851 0
v -6072 -1851 0
v -5940 -1980 0
v -6072 -1980 0
v -6072 -1851 0
v -5940 -1851 0
v -5808 -1980 0
v -5940 -1980 0
v -5940 -1851 0
v -5808 -1851 0
v -5676 -1980 0
v -5808 -1980 0
v -5808 -1851 0
v -5676 -1851 0
v -6666 -2013 0
v -6798 -2013 0
v -6798 -1884 0
v -6666 -1884 0
v -6534 -2013 0
v -6666 -2013 0
v -6666 -1884 0
v -6534 -1884 0
v -6402 -2013 0
v -6534 -2013 0
v -6534 -1884 0
v -6402 -1884 0
v -6270 -2013 0
v -6402 -2013 0
v -6402 -1884 0
v -6270 -1884 0
v -6138 -2013 0
v -6270 -2013 0
v -6270 -1884 0
v -6138 -1884 0
v -6006 -2013 0
v -6138 -2013 0
v -6138 -1884 0
v -6006 -1884 0
v -5874 -2013 0
v -6006 -2013 0
v -6006 -1884 0
v -5874 -1884 0
v -5742 -2013 0
v -5874 -2013 0
v -5874 -1884 0
v -5742 -1884 0
v -6600 -2046 0
v -6732 -2046 0
v -6732 -1917 0
v -6600 -1917 0
v -6468 -2046 0
v -6600 -2046 0
v -6600 -1917 0
v -6468 -1917 0
v -6336 -2046 0
v -6468 -2046 0
v -6468 -1917 0
v -6336 -1917 0
v -6204 -2046 0
v -6336 -2046 0
v -6336 -1917 0
v -6204 -1917 0
v -6072 -2046 0
v -6204 -2046 0
v -6204 -1917 0
v -6072 -1917 0
v -5940 -2046 0
v -6072 -2046 0
v -6072 -1917 0
v -5940 -1917 0
v -5808 -2046 0
v -5940 -2046 0
v -5940 -1917 0
v -5808 -1917 0
v -6534 -2079 0
v -6666 -2079 0
v -6666 -1950 0
v -6534 -1950 0
v -6402 -2079 0
v -6534 -2079 0
v -6534 -1950 0
v -6402 -1950 0
v -6270 -2079 0
v -6402 -2079 0
v -6402 -1950 0
v -6270 -1950 0
v -6138 -2079 0
v -6270 -2079 0
v -6270 -1950 0
v -6138 -1950 0
v -6006 -2079 0
v -6138 -2079 0
v -6138 -1950 0
v -6006 -1950 0
v -5874 -2079 0
v -6006 -2079 0
v -6006 -1950 0
v -5874 -1950 0
v -6468 -2112 0
v -6600 -2112 0
v -6600 -1983 0
v -6468 -1983 0
v -6336 -2112 0
v -6468 -2112 0
v -6468 -1983 0
v -6336 -1983 0
v -6204 -2112 0
v -6336 -2112 0
v -6336 -1983 0
v -6204 -1983 0
v -6072 -2112 0
v -6204 -2112 0
v -6204 -1983 0
v -6072 -1983 0
v -5940 -2112 0
v -6072 -2112 0
v -6072 -1983 0
v -5940 -1983 0
v -6402 -2145 0
v -6534 -2145 0
v -6534 -2016 0
v -6402 -2016 0
v -6270 -2145 0
v -6402 -2145 0
v -6402 -2016 0
v -6270 -2016 0
v -6138 -2145 0
v -6270 -2145 0
v -6270 -2016 0
v -6138 -2016 0
v -6006 -2145 0
v -6138 -2145 0
v -6138 -2016 0
v -6006 -2016 0
v -6336 -2178 0
v -6468 -2178 0
v -6468 -2049 0
v -6336 -2049 0
v -6204 -2178 0
v -6336 -2178 0
v -6336 -2049 0
v -6204 -2049 0
v -6072 -2178 0
v -6204 -2178 0
v -6204 -2049 0
v -6072 -2049 0
v -6270 -2211 0
v -6402 -2211 0
v -6402 -2082 0
v -6270 -2082 0
v -6138 -2211 0
v -6270 -2211 0
v -6270 -2082 0
v -6138 -2082 0
v -6204 -2244 0
v -6336 -2244 0
v -6336 -2115 0
v -6204 -2115 0

# Texture cooridinates (Count = 19)
vt 0.5 0.6700767
vt 0.75 0.6700767
vt 0.75 1
vt 0.5 1
vt 0 0.6700767
vt 0.25 0.6700767
vt 0.25 1
vt 0 1
vt 0.5 0.3401535
vt 0.75 0.3401535
vt 0 0.01023018
vt 0.25 0.01023018
vt 0.25 0.3401535
vt 0 0.3401535
vt 0.75 0.01023018
vt 1 0.01023018
vt 1 0.3401535
vt 1 0.6700767
vt 1 1

# Normal
vn 0 0 -1

# Mesh description
g mapa8_mesh_0001

# Faces
f 1/1/1 2/2/1 3/3/1 4/4/1
f 5/5/1 6/6/1 7/7/1 8/8/1
f 9/9/1 10/10/1 11/2/1 12/1/1
f 13/5/1 14/6/1 15/7/1 16/8/1
f 17/11/1 18/12/1 19/13/1 20/14/1
f 21/9/1 22/10/1 23/2/1 24/1/1
f 25/5/1 26/6/1 27/7/1 28/8/1
f 29/11/1 30/12/1 31/13/1 32/14/1
f 33/1/1 34/2/1 35/3/1 36/4/1
f 37/9/1 38/10/1 39/2/1 40/1/1
f 41/5/1 42/6/1 43/7/1 44/8/1
f 45/11/1 46/12/1 47/13/1 48/14/1
f 49/5/1 50/6/1 51/7/1 52/8/1
f 53/9/1 54/10/1 55/2/1 56/1/1
f 57/9/1 58/10/1 59/2/1 60/1/1
f 61/5/1 62/6/1 63/7/1 64/8/1
f 65/15/1 66/16/1 67/17/1 68/10/1
f 69/5/1 70/6/1 71/7/1 72/8/1
f 73/15/1 74/16/1 75/17/1 76/10/1
f 77/9/1 78/10/1 79/2/1 80/1/1
f 81/9/1 82/10/1 83/2/1 84/1/1
f 85/1/1 86/2/1 87/3/1 88/4/1
f 89/5/1 90/6/1 91/7/1 92/8/1
f 93/11/1 94/12/1 95/13/1 96/14/1
f 97/5/1 98/6/1 99/7/1 100/8/1
f 101/15/1 102/16/1 103/17/1 104/10/1
f 105/15/1 106/16/1 107/17/1 108/10/1
f 109/9/1 110/10/1 111/2/1 112/1/1
f 113/6/1 114/1/1 115/4/1 116/7/1
f 117/2/1 118/18/1 119/19/1 120/3/1
f 121/5/1 122/6/1 123/7/1 124/8/1
f 125/11/1 126/12/1 127/13/1 128/14/1
f 129/5/1 130/6/1 131/7/1 132/8/1
f 133/15/1 134/16/1 135/17/1 136/10/1
f 137/15/1 138/16/1 139/17/1 140/10/1
f 141/15/1 142/16/1 143/17/1 144/10/1
f 145/2/1 146/18/1 147/19/1 148/3/1
f 149/13/1 150/9/1 151/1/1 152/6/1
f 153/5/1 154/6/1 155/7/1 156/8/1
f 157/11/1 158/12/1 159/13/1 160/14/1
f 161/14/1 162/13/1 163/6/1 164/5/1
f 165/15/1 166/16/1 167/17/1 168/10/1
f 169/15/1 170/16/1 171/17/1 172/10/1
f 173/15/1 174/16/1 175/17/1 176/10/1
f 177/5/1 178/6/1 179/7/1 180/8/1
f 181/15/1 182/16/1 183/17/1 184/10/1
f 185/2/1 186/18/1 187/19/1 188/3/1
f 189/5/1 190/6/1 191/7/1 192/8/1
f 193/11/1 194/12/1 195/13/1 196/14/1
f 197/14/1 198/13/1 199/6/1 200/5/1
f 201/15/1 202/16/1 203/17/1 204/10/1
f 205/15/1 206/16/1 207/17/1 208/10/1
f 209/15/1 210/16/1 211/17/1 212/10/1
f 213/5/1 214/6/1 215/7/1 216/8/1
f 217/15/1 218/16/1 219/17/1 220/10/1
f 221/13/1 222/9/1 223/1/1 224/6/1
f 225/11/1 226/12/1 227/13/1 228/14/1
f 229/5/1 230/6/1 231/7/1 232/8/1
f 233/11/1 234/12/1 235/13/1 236/14/1
f 237/14/1 238/13/1 239/6/1 240/5/1
f 241/15/1 242/16/1 243/17/1 244/10/1
f 245/15/1 246/16/1 247/17/1 248/10/1
f 249/15/1 250/16/1 251/17/1 252/10/1
f 253/5/1 254/6/1 255/7/1 256/8/1
f 257/15/1 258/16/1 259/17/1 260/10/1
f 261/11/1 262/12/1 263/13/1 264/14/1
f 265/9/1 266/10/1 267/2/1 268/1/1
f 269/11/1 270/12/1 271/13/1 272/14/1
f 273/5/1 274/6/1 275/7/1 276/8/1
f 277/15/1 278/16/1 279/17/1 280/10/1
f 281/14/1 282/13/1 283/6/1 284/5/1
f 285/15/1 286/16/1 287/17/1 288/10/1
f 289/15/1 290/16/1 291/17/1 292/10/1
f 293/11/1 294/12/1 295/13/1 296/14/1
f 297/5/1 298/6/1 299/7/1 300/8/1
f 301/15/1 302/16/1 303/17/1 304/10/1
f 305/11/1 306/12/1 307/13/1 308/14/1
f 309/15/1 310/16/1 311/17/1 312/10/1
f 313/9/1 314/10/1 315/2/1 316/1/1
f 317/11/1 318/12/1 319/13/1 320/14/1
f 321/13/1 322/9/1 323/1/1 324/6/1
f 325/15/1 326/16/1 327/17/1 328/10/1
f 329/5/1 330/6/1 331/7/1 332/8/1
f 333/15/1 334/16/1 335/17/1 336/10/1
f 337/15/1 338/16/1 339/17/1 340/10/1
f 341/15/1 342/16/1 343/17/1 344/10/1
f 345/14/1 346/13/1 347/6/1 348/5/1
f 349/15/1 350/16/1 351/17/1 352/10/1
f 353/11/1 354/12/1 355/13/1 356/14/1
f 357/15/1 358/16/1 359/17/1 360/10/1
f 361/11/1 362/12/1 363/13/1 364/14/1
f 365/9/1 366/10/1 367/2/1 368/1/1
f 369/15/1 370/16/1 371/17/1 372/10/1
f 373/9/1 374/10/1 375/2/1 376/1/1
f 377/9/1 378/10/1 379/2/1 380/1/1
f 381/5/1 382/6/1 383/7/1 384/8/1
f 385/9/1 386/10/1 387/2/1 388/1/1
f 389/15/1 390/16/1 391/17/1 392/10/1
f 393/11/1 394/12/1 395/13/1 396/14/1
f 397/14/1 398/13/1 399/6/1 400/5/1
f 401/15/1 402/16/1 403/17/1 404/10/1
f 405/11/1 406/12/1 407/13/1 408/14/1
f 409/15/1 410/16/1 411/17/1 412/10/1
f 413/15/1 414/16/1 415/17/1 416/10/1
f 417/11/1 418/12/1 419/13/1 420/14/1
f 421/2/1 422/18/1 423/19/1 424/3/1
f 425/9/1 426/10/1 427/2/1 428/1/1
f 429/6/1 430/1/1 431/4/1 432/7/1
f 433/15/1 434/16/1 435/17/1 436/10/1
f 437/9/1 438/10/1 439/2/1 440/1/1
f 441/15/1 442/16/1 443/17/1 444/10/1
f 445/5/1 446/6/1 447/7/1 448/8/1
f 449/15/1 450/16/1 451/17/1 452/10/1
f 453/11/1 454/12/1 455/13/1 456/14/1
f 457/15/1 458/16/1 459/17/1 460/10/1
f 461/15/1 462/16/1 463/17/1 464/10/1
f 465/15/1 466/16/1 467/17/1 468/10/1
f 469/5/1 470/6/1 471/7/1 472/8/1
f 473/9/1 474/10/1 475/2/1 476/1/1
f 477/11/1 478/12/1 479/13/1 480/14/1
f 481/15/1 482/16/1 483/17/1 484/10/1
f 485/9/1 486/10/1 487/2/1 488/1/1
f 489/5/1 490/6/1 491/7/1 492/8/1
f 493/15/1 494/16/1 495/17/1 496/10/1
f 497/15/1 498/16/1 499/17/1 500/10/1
f 501/15/1 502/16/1 503/17/1 504/10/1
f 505/11/1 506/12/1 507/13/1 508/14/1
f 509/15/1 510/16/1 511/17/1 512/10/1
f 513/5/1 514/6/1 515/7/1 516/8/1
f 517/9/1 518/10/1 519/2/1 520/1/1
f 521/15/1 522/16/1 523/17/1 524/10/1
f 525/15/1 526/16/1 527/17/1 528/10/1
f 529/6/1 530/1/1 531/4/1 532/7/1
f 533/15/1 534/16/1 535/17/1 536/10/1
f 537/15/1 538/16/1 539/17/1 540/10/1
f 541/15/1 542/16/1 543/17/1 544/10/1
f 545/15/1 546/16/1 547/17/1 548/10/1
f 549/15/1 550/16/1 551/17/1 552/10/1
f 553/5/1 554/6/1 555/7/1 556/8/1
f 557/9/1 558/10/1 559/2/1 560/1/1
f 561/11/1 562/12/1 563/13/1 564/14/1
f 565/15/1 566/16/1 567/17/1 568/10/1
f 569/15/1 570/16/1 571/17/1 572/10/1
f 573/15/1 574/16/1 575/17/1 576/10/1
f 577/15/1 578/16/1 579/17/1 580/10/1
f 581/11/1 582/12/1 583/13/1 584/14/1
f 585/15/1 586/16/1 587/17/1 588/10/1
f 589/5/1 590/6/1 591/7/1 592/8/1
f 593/9/1 594/10/1 595/2/1 596/1/1
f 597/15/1 598/16/1 599/17/1 600/10/1
f 601/15/1 602/16/1 603/17/1 604/10/1
f 605/15/1 606/16/1 607/17/1 608/10/1
f 609/15/1 610/16/1 611/17/1 612/10/1
f 613/15/1 614/16/1 615/17/1 616/10/1
f 617/15/1 618/16/1 619/17/1 620/10/1
f 621/5/1 622/6/1 623/7/1 624/8/1
f 625/9/1 626/10/1 627/2/1 628/1/1
f 629/11/1 630/12/1 631/13/1 632/14/1
f 633/15/1 634/16/1 635/17/1 636/10/1
f 637/15/1 638/16/1 639/17/1 640/10/1
f 641/11/1 642/12/1 643/13/1 644/14/1
f 645/15/1 646/16/1 647/17/1 648/10/1
f 649/5/1 650/6/1 651/7/1 652/8/1
f 653/9/1 654/10/1 655/2/1 656/1/1
f 657/15/1 658/16/1 659/17/1 660/10/1
f 661/15/1 662/16/1 663/17/1 664/10/1
f 665/15/1 666/16/1 667/17/1 668/10/1
f 669/15/1 670/16/1 671/17/1 672/10/1
f 673/5/1 674/6/1 675/7/1 676/8/1
f 677/9/1 678/10/1 679/2/1 680/1/1
f 681/15/1 682/16/1 683/17/1 684/10/1
f 685/11/1 686/12/1 687/13/1 688/14/1
f 689/15/1 690/16/1 691/17/1 692/10/1
f 693/5/1 694/6/1 695/7/1 696/8/1
f 697/9/1 698/10/1 699/2/1 700/1/1
f 701/15/1 702/16/1 703/17/1 704/10/1
f 705/15/1 706/16/1 707/17/1 708/10/1
f 709/5/1 710/6/1 711/7/1 712/8/1
f 713/9/1 714/10/1 715/2/1 716/1/1
f 717/15/1 718/16/1 719/17/1 720/10/1
f 721/5/1 722/6/1 723/7/1 724/8/1
f 725/9/1 726/10/1 727/2/1 728/1/1
f 729/5/1 730/6/1 731/7/1 732/8/1
f 733/6/1 734/1/1 735/4/1 736/7/1

